<svg xmlns="http://www.w3.org/2000/svg" xmlns:xlink="http://www.w3.org/1999/xlink" xmlns:lucid="lucid" width="1520.87" height="930"><g transform="translate(-220 -166)" lucid:page-tab-id="0_0"><path d="M740 746a6 6 0 0 1 6-6h388a6 6 0 0 1 6 6v324a6 6 0 0 1-6 6H746a6 6 0 0 1-6-6z" fill="#bb86fc"/><path d="M740 746a6 6 0 0 1 6-6h388a6 6 0 0 1 6 6v324a6 6 0 0 1-6 6H746a6 6 0 0 1-6-6zM740 780h400M800 780v296M1022.67 780v296" stroke="#9e66e4" stroke-width="2" fill="none"/><use xlink:href="#a" transform="matrix(1,0,0,1,750,740) translate(152.43827160493828 24.444444444444443)"/><use xlink:href="#b" transform="matrix(1,0,0,1,745,782.5) translate(10.833333333333334 20.444444444444443)"/><use xlink:href="#c" transform="matrix(1,0,0,1,805,782.5) translate(0 20.444444444444443)"/><use xlink:href="#d" transform="matrix(1,0,0,1,1027.6666666666667,782.5) translate(0 20.444444444444443)"/><use xlink:href="#e" transform="matrix(1,0,0,1,745,819.5) translate(6.543209876543209 20.444444444444443)"/><use xlink:href="#f" transform="matrix(1,0,0,1,805,819.5) translate(0 20.444444444444443)"/><use xlink:href="#g" transform="matrix(1,0,0,1,1027.6666666666667,819.5) translate(0 20.444444444444443)"/><use xlink:href="#e" transform="matrix(1,0,0,1,745,856.5) translate(6.543209876543209 20.444444444444443)"/><use xlink:href="#h" transform="matrix(1,0,0,1,805,856.5) translate(0 20.444444444444443)"/><use xlink:href="#g" transform="matrix(1,0,0,1,1027.6666666666667,856.5) translate(0 20.444444444444443)"/><use xlink:href="#e" transform="matrix(1,0,0,1,745,893.5) translate(6.543209876543209 20.444444444444443)"/><use xlink:href="#i" transform="matrix(1,0,0,1,805,893.5) translate(0 20.444444444444443)"/><use xlink:href="#g" transform="matrix(1,0,0,1,1027.6666666666667,893.5) translate(0 20.444444444444443)"/><use xlink:href="#e" transform="matrix(1,0,0,1,745,930.5) translate(6.543209876543209 20.444444444444443)"/><use xlink:href="#j" transform="matrix(1,0,0,1,805,930.5) translate(0 20.444444444444443)"/><use xlink:href="#g" transform="matrix(1,0,0,1,1027.6666666666667,930.5) translate(0 20.444444444444443)"/><use xlink:href="#e" transform="matrix(1,0,0,1,745,967.5) translate(6.543209876543209 20.444444444444443)"/><use xlink:href="#k" transform="matrix(1,0,0,1,805,967.5) translate(0 20.444444444444443)"/><use xlink:href="#g" transform="matrix(1,0,0,1,1027.6666666666667,967.5) translate(0 20.444444444444443)"/><use xlink:href="#e" transform="matrix(1,0,0,1,745,1004.5) translate(6.543209876543209 20.444444444444443)"/><use xlink:href="#l" transform="matrix(1,0,0,1,805,1004.5) translate(0 20.444444444444443)"/><use xlink:href="#g" transform="matrix(1,0,0,1,1027.6666666666667,1004.5) translate(0 20.444444444444443)"/><use xlink:href="#e" transform="matrix(1,0,0,1,745,1041.5) translate(6.543209876543209 20.444444444444443)"/><use xlink:href="#m" transform="matrix(1,0,0,1,805,1041.5) translate(0 20.444444444444443)"/><use xlink:href="#g" transform="matrix(1,0,0,1,1027.6666666666667,1041.5) translate(0 20.444444444444443)"/><path d="M240 749a6 6 0 0 1 6-6h368a6 6 0 0 1 6 6v213a6 6 0 0 1-6 6H246a6 6 0 0 1-6-6z" fill="#bb86fc"/><path d="M240 749a6 6 0 0 1 6-6h368a6 6 0 0 1 6 6v213a6 6 0 0 1-6 6H246a6 6 0 0 1-6-6zM240 783h380M300 783v185M508.4 783v185" stroke="#9e66e4" stroke-width="2" fill="none"/><use xlink:href="#n" transform="matrix(1,0,0,1,250,743) translate(135 24.444444444444443)"/><use xlink:href="#b" transform="matrix(1,0,0,1,245,785.5) translate(10.833333333333334 20.444444444444443)"/><use xlink:href="#c" transform="matrix(1,0,0,1,305,785.5) translate(0 20.444444444444443)"/><use xlink:href="#d" transform="matrix(1,0,0,1,513.4000000000001,785.5) translate(0 20.444444444444443)"/><use xlink:href="#e" transform="matrix(1,0,0,1,245,822.5) translate(6.543209876543209 20.444444444444443)"/><use xlink:href="#o" transform="matrix(1,0,0,1,305,822.5) translate(0 20.444444444444443)"/><use xlink:href="#g" transform="matrix(1,0,0,1,513.4000000000001,822.5) translate(0 20.444444444444443)"/><use xlink:href="#e" transform="matrix(1,0,0,1,245,859.5) translate(6.543209876543209 20.444444444444443)"/><use xlink:href="#p" transform="matrix(1,0,0,1,305,859.5) translate(0 20.444444444444443)"/><use xlink:href="#g" transform="matrix(1,0,0,1,513.4000000000001,859.5) translate(0 20.444444444444443)"/><use xlink:href="#e" transform="matrix(1,0,0,1,245,896.5) translate(6.543209876543209 20.444444444444443)"/><use xlink:href="#q" transform="matrix(1,0,0,1,305,896.5) translate(0 20.444444444444443)"/><use xlink:href="#g" transform="matrix(1,0,0,1,513.4000000000001,896.5) translate(0 20.444444444444443)"/><use xlink:href="#r" transform="matrix(1,0,0,1,245,933.5) translate(10.833333333333334 20.444444444444443)"/><use xlink:href="#s" transform="matrix(1,0,0,1,305,933.5) translate(0 20.444444444444443)"/><use xlink:href="#d" transform="matrix(1,0,0,1,513.4000000000001,933.5) translate(0 20.444444444444443)"/><path d="M1290 610.42a6 6 0 0 1 6-6h288a6 6 0 0 1 6 6v102a6 6 0 0 1-6 6h-288a6 6 0 0 1-6-6z" fill="#bb86fc"/><path d="M1290 610.42a6 6 0 0 1 6-6h288a6 6 0 0 1 6 6v102a6 6 0 0 1-6 6h-288a6 6 0 0 1-6-6zM1290 644.42h300M1350 644.42v74M1466.8 644.42v74" stroke="#9e66e4" stroke-width="2" fill="none"/><use xlink:href="#t" transform="matrix(1,0,0,1,1300,604.4173228346456) translate(88.82716049382717 24.444444444444443)"/><use xlink:href="#e" transform="matrix(1,0,0,1,1295,646.9173228346456) translate(6.543209876543209 20.444444444444443)"/><use xlink:href="#u" transform="matrix(1,0,0,1,1355,646.9173228346456) translate(0 20.444444444444443)"/><use xlink:href="#g" transform="matrix(1,0,0,1,1471.8000000000006,646.9173228346456) translate(0 20.444444444444443)"/><use xlink:href="#r" transform="matrix(1,0,0,1,1295,683.9173228346456) translate(10.833333333333334 20.444444444444443)"/><use xlink:href="#v" transform="matrix(1,0,0,1,1355,683.9173228346456) translate(0 20.444444444444443)"/><use xlink:href="#d" transform="matrix(1,0,0,1,1471.8000000000006,683.9173228346456) translate(0 20.444444444444443)"/><path d="M1160.93 759.3H1209a6 6 0 0 0 6-6v-47.14a6 6 0 0 1 6-6h29.56" stroke="#03dac6" stroke-width="3" fill="none"/><path d="M1150.93 769.3v-20M1140.93 759.3h20M1160.93 769.3v-20M1279.06 690.16v20M1289.06 700.16h-20M1269.06 700.16c0 5.52-4.47 10-10 10-5.52 0-10-4.48-10-10 0-5.53 4.48-10 10-10 5.53 0 10 4.47 10 10" stroke="#03dac6" stroke-width="3" fill="#fff"/><path d="M659.5 949.75H674a6 6 0 0 0 6-6v-178.5a6 6 0 0 1 6-6h33" stroke="#03dac6" stroke-width="3" fill="none"/><path d="M621.67 939.75l20 10-20 10" stroke="#03dac6" stroke-width="3" fill="#fff" fill-opacity="0"/><path d="M621.67 949.75h20M661.67 949.75c0 5.52-4.48 10-10 10-5.53 0-10-4.48-10-10 0-5.53 4.47-10 10-10 5.52 0 10 4.47 10 10M729 749.26v20M739 759.26h-20M719 749.26v20" stroke="#03dac6" stroke-width="3" fill="#fff"/><path d="M540 546a6 6 0 0 1 6-6h268a6 6 0 0 1 6 6v102a6 6 0 0 1-6 6H546a6 6 0 0 1-6-6z" fill="#bb86fc"/><path d="M540 546a6 6 0 0 1 6-6h268a6 6 0 0 1 6 6v102a6 6 0 0 1-6 6H546a6 6 0 0 1-6-6zM540 580h280M600 580v74M724.8 580v74" stroke="#9e66e4" stroke-width="2" fill="none"/><use xlink:href="#w" transform="matrix(1,0,0,1,550,540) translate(60.987654320987644 24.444444444444443)"/><use xlink:href="#r" transform="matrix(1,0,0,1,545,582.5) translate(10.833333333333334 20.444444444444443)"/><use xlink:href="#v" transform="matrix(1,0,0,1,605,582.5) translate(0 20.444444444444443)"/><use xlink:href="#d" transform="matrix(1,0,0,1,729.8000000000001,582.5) translate(0 20.444444444444443)"/><use xlink:href="#r" transform="matrix(1,0,0,1,545,619.5) translate(10.833333333333334 20.444444444444443)"/><use xlink:href="#x" transform="matrix(1,0,0,1,605,619.5) translate(0 20.444444444444443)"/><use xlink:href="#d" transform="matrix(1,0,0,1,729.8000000000001,619.5) translate(0 20.444444444444443)"/><path d="M859.46 598.5h35.98a6 6 0 0 1 6 6v114.54" stroke="#03dac6" stroke-width="3" fill="none"/><path d="M821.64 588.5l20 10-20 10" stroke="#03dac6" stroke-width="3" fill="#fff" fill-opacity="0"/><path d="M821.64 598.5h20M861.64 598.5c0 5.53-4.48 10-10 10-5.53 0-10-4.47-10-10 0-5.5 4.47-10 10-10 5.52 0 10 4.5 10 10M911.44 729.04h-20M901.44 739.04v-20M911.44 719.04h-20" stroke="#03dac6" stroke-width="3" fill="#fff"/><path d="M500.56 635.76h-25.8a6 6 0 0 0-6 6v80.27" stroke="#03dac6" stroke-width="3" fill="none"/><path d="M538.4 645.76l-20-10 20-10" stroke="#03dac6" stroke-width="3" fill="#fff" fill-opacity="0"/><path d="M538.4 635.76h-20M518.4 635.76c0 5.52-4.48 10-10 10-5.53 0-10-4.48-10-10 0-5.53 4.47-10 10-10 5.52 0 10 4.47 10 10M478.75 732.03h-20M468.75 742.03v-20M478.75 722.03h-20" stroke="#03dac6" stroke-width="3" fill="#fff"/><path d="M540 406a6 6 0 0 1 6-6h268a6 6 0 0 1 6 6v102a6 6 0 0 1-6 6H546a6 6 0 0 1-6-6z" fill="#bb86fc"/><path d="M540 406a6 6 0 0 1 6-6h268a6 6 0 0 1 6 6v102a6 6 0 0 1-6 6H546a6 6 0 0 1-6-6zM540 440h280M600 440v74M724.8 440v74" stroke="#9e66e4" stroke-width="2" fill="none"/><use xlink:href="#y" transform="matrix(1,0,0,1,550,400) translate(56.04938271604938 24.444444444444443)"/><use xlink:href="#r" transform="matrix(1,0,0,1,545,442.5) translate(10.833333333333334 20.444444444444443)"/><use xlink:href="#v" transform="matrix(1,0,0,1,605,442.5) translate(0 20.444444444444443)"/><use xlink:href="#d" transform="matrix(1,0,0,1,729.8000000000001,442.5) translate(0 20.444444444444443)"/><use xlink:href="#r" transform="matrix(1,0,0,1,545,479.5) translate(10.833333333333334 20.444444444444443)"/><use xlink:href="#x" transform="matrix(1,0,0,1,605,479.5) translate(0 20.444444444444443)"/><use xlink:href="#d" transform="matrix(1,0,0,1,729.8000000000001,479.5) translate(0 20.444444444444443)"/><path d="M940 719.04V464.5a6 6 0 0 0-6-6h-74.54" stroke="#03dac6" stroke-width="3" fill="none"/><path d="M950 729.04h-20M940 739.04v-20M950 719.04h-20" stroke="#03dac6" stroke-width="3" fill="#fff"/><path d="M821.64 448.5l20 10-20 10" stroke="#03dac6" stroke-width="3" fill="#fff" fill-opacity="0"/><path d="M821.64 458.5h20M861.64 458.5c0 5.53-4.48 10-10 10-5.53 0-10-4.47-10-10 0-5.5 4.47-10 10-10 5.52 0 10 4.5 10 10" stroke="#03dac6" stroke-width="3" fill="#fff"/><path d="M430 722.04V501.76a6 6 0 0 1 6-6h64.56" stroke="#03dac6" stroke-width="3" fill="none"/><path d="M440 732.04h-20M430 742.04v-20M440 722.04h-20" stroke="#03dac6" stroke-width="3" fill="#fff"/><path d="M538.4 505.76l-20-10 20-10" stroke="#03dac6" stroke-width="3" fill="#fff" fill-opacity="0"/><path d="M538.4 495.76h-20M518.4 495.76c0 5.52-4.48 10-10 10-5.53 0-10-4.48-10-10 0-5.53 4.47-10 10-10 5.52 0 10 4.47 10 10" stroke="#03dac6" stroke-width="3" fill="#fff"/><path d="M510 192a6 6 0 0 1 6-6h328a6 6 0 0 1 6 6v176a6 6 0 0 1-6 6H516a6 6 0 0 1-6-6z" fill="#bb86fc"/><path d="M510 192a6 6 0 0 1 6-6h328a6 6 0 0 1 6 6v176a6 6 0 0 1-6 6H516a6 6 0 0 1-6-6zM510 226h340M570 226v148M701.2 226v148" stroke="#9e66e4" stroke-width="2" fill="none"/><use xlink:href="#z" transform="matrix(1,0,0,1,520,186) translate(103.33333333333334 24.444444444444443)"/><use xlink:href="#r" transform="matrix(1,0,0,1,515,228.5) translate(10.833333333333334 20.444444444444443)"/><use xlink:href="#v" transform="matrix(1,0,0,1,575,228.5) translate(0 20.444444444444443)"/><use xlink:href="#d" transform="matrix(1,0,0,1,706.1999999999998,228.5) translate(0 20.444444444444443)"/><use xlink:href="#r" transform="matrix(1,0,0,1,515,265.5) translate(10.833333333333334 20.444444444444443)"/><use xlink:href="#x" transform="matrix(1,0,0,1,575,265.5) translate(0 20.444444444444443)"/><use xlink:href="#d" transform="matrix(1,0,0,1,706.1999999999998,265.5) translate(0 20.444444444444443)"/><use xlink:href="#e" transform="matrix(1,0,0,1,515,302.5) translate(6.543209876543209 20.444444444444443)"/><use xlink:href="#A" transform="matrix(1,0,0,1,575,302.5) translate(0 20.444444444444443)"/><use xlink:href="#B" transform="matrix(1,0,0,1,706.1999999999998,302.5) translate(0 20.444444444444443)"/><use xlink:href="#e" transform="matrix(1,0,0,1,515,339.5) translate(6.543209876543209 20.444444444444443)"/><use xlink:href="#C" transform="matrix(1,0,0,1,575,339.5) translate(0 20.444444444444443)"/><use xlink:href="#g" transform="matrix(1,0,0,1,706.1999999999998,339.5) translate(0 20.444444444444443)"/><path d="M889.45 244.3h84.9a6 6 0 0 1 6 6v468.73" stroke="#03dac6" stroke-width="3" fill="none"/><path d="M851.62 234.3l20 10-20 10" stroke="#03dac6" stroke-width="3" fill="#fff" fill-opacity="0"/><path d="M851.62 244.3h20M891.62 244.3c0 5.52-4.48 10-10 10s-10-4.48-10-10 4.48-10 10-10 10 4.48 10 10M990.36 729.03h-20M980.36 739.03v-20M990.36 719.03h-20" stroke="#03dac6" stroke-width="3" fill="#fff"/><path d="M470.54 281.5h-74.3a6 6 0 0 0-6 6v434.54" stroke="#03dac6" stroke-width="3" fill="none"/><path d="M508.37 291.5l-20-10 20-10" stroke="#03dac6" stroke-width="3" fill="#fff" fill-opacity="0"/><path d="M508.37 281.5h-20M488.37 281.5c0 5.53-4.48 10-10 10-5.53 0-10-4.47-10-10 0-5.5 4.47-10 10-10 5.52 0 10 4.5 10 10M400.23 732.04h-20M390.23 742.04v-20M400.23 722.04h-20" stroke="#03dac6" stroke-width="3" fill="#fff"/><path d="M1290 745.84a6 6 0 0 1 6-6h418.87a6 6 0 0 1 6 6v176a6 6 0 0 1-6 6H1296a6 6 0 0 1-6-6z" fill="#bb86fc"/><path d="M1290 745.84a6 6 0 0 1 6-6h418.87a6 6 0 0 1 6 6v176a6 6 0 0 1-6 6H1296a6 6 0 0 1-6-6zM1290 779.84h430.87M1350 779.84v148M1538.8 779.84v148" stroke="#9e66e4" stroke-width="2" fill="none"/><use xlink:href="#D" transform="matrix(1,0,0,1,1300,739.8388929823063) translate(124.14197530864199 24.444444444444443)"/><use xlink:href="#r" transform="matrix(1,0,0,1,1295,782.3388929823063) translate(10.833333333333334 20.444444444444443)"/><use xlink:href="#v" transform="matrix(1,0,0,1,1355,782.3388929823063) translate(0 20.444444444444443)"/><use xlink:href="#d" transform="matrix(1,0,0,1,1543.8000000000006,782.3388929823063) translate(0 20.444444444444443)"/><use xlink:href="#e" transform="matrix(1,0,0,1,1295,819.3388929823063) translate(6.543209876543209 20.444444444444443)"/><use xlink:href="#E" transform="matrix(1,0,0,1,1355,819.3388929823063) translate(0 20.444444444444443)"/><use xlink:href="#g" transform="matrix(1,0,0,1,1543.8000000000006,819.3388929823063) translate(0 20.444444444444443)"/><use xlink:href="#e" transform="matrix(1,0,0,1,1295,856.3388929823063) translate(6.543209876543209 20.444444444444443)"/><use xlink:href="#F" transform="matrix(1,0,0,1,1355,856.3388929823063) translate(0 20.444444444444443)"/><use xlink:href="#G" transform="matrix(1,0,0,1,1543.8000000000006,856.3388929823063) translate(0 20.444444444444443)"/><use xlink:href="#e" transform="matrix(1,0,0,1,1295,893.3388929823063) translate(6.543209876543209 20.444444444444443)"/><use xlink:href="#H" transform="matrix(1,0,0,1,1355,893.3388929823063) translate(0 20.444444444444443)"/><use xlink:href="#g" transform="matrix(1,0,0,1,1543.8000000000006,893.3388929823063) translate(0 20.444444444444443)"/><path d="M1250.52 798.18h-35.44a.1.1 0 0 1-.1-.1.1.1 0 0 0-.1-.1h-53.94" stroke="#03dac6" stroke-width="3" fill="none"/><path d="M1279.02 788.18v20M1289.02 798.18h-20M1269.02 798.18c0 5.52-4.48 10-10 10s-10-4.48-10-10c0-5.53 4.48-10 10-10s10 4.47 10 10M1150.94 808v-20M1140.94 798h20M1160.94 808v-20" stroke="#03dac6" stroke-width="3" fill="#fff"/><path d="M1290 955.26a6 6 0 0 1 6-6h308a6 6 0 0 1 6 6v102a6 6 0 0 1-6 6h-308a6 6 0 0 1-6-6z" fill="#bb86fc"/><path d="M1290 955.26a6 6 0 0 1 6-6h308a6 6 0 0 1 6 6v102a6 6 0 0 1-6 6h-308a6 6 0 0 1-6-6zM1290 989.26h320M1350 989.26v74M1470 989.26v74" stroke="#9e66e4" stroke-width="2" fill="none"/><use xlink:href="#I" transform="matrix(1,0,0,1,1300,949.2604631299671) translate(66.23456790123458 24.444444444444443)"/><use xlink:href="#r" transform="matrix(1,0,0,1,1295,991.7604631299671) translate(10.833333333333334 20.444444444444443)"/><use xlink:href="#v" transform="matrix(1,0,0,1,1355,991.7604631299671) translate(0 20.444444444444443)"/><use xlink:href="#d" transform="matrix(1,0,0,1,1475,991.7604631299671) translate(0 20.444444444444443)"/><use xlink:href="#e" transform="matrix(1,0,0,1,1295,1028.760463129967) translate(6.543209876543209 20.444444444444443)"/><use xlink:href="#A" transform="matrix(1,0,0,1,1355,1028.760463129967) translate(0 20.444444444444443)"/><use xlink:href="#B" transform="matrix(1,0,0,1,1475,1028.760463129967) translate(0 20.444444444444443)"/><path d="M1250.54 1007.77H1221a6 6 0 0 1-6-6v-160.6a6 6 0 0 0-6-6h-48.05" stroke="#03dac6" stroke-width="3" fill="none"/><path d="M1279.04 997.77v20M1289.04 1007.77h-20M1269.04 1007.77c0 5.52-4.48 10-10 10-5.53 0-10-4.48-10-10 0-5.53 4.47-10 10-10 5.52 0 10 4.47 10 10M1150.95 845.16v-20M1140.95 835.16h20M1160.95 845.16v-20" stroke="#03dac6" stroke-width="3" fill="#fff"/><defs><path fill="#fff" d="M240-154L185 4h-14l-41-109L90 4H77L20-153c-7-3-23 1-20-12h79v8l-27 4L91-41l40-108h14l40 109 38-113-28-4v-8h63v8" id="J"/><path fill="#fff" d="M125-118c4-37-41-34-68-26v132l23 4v8H8C5-13 21-9 28-12v-141c-7-3-23 1-20-12h47l2 13c31-23 98-29 98 31v109c7 3 23-1 20 12h-72v-8l22-4v-106" id="K"/><path fill="#fff" d="M-3 46V28h186v18H-3" id="L"/><path fill="#fff" d="M124-13C89 8 26 15 26-45v-108c-8-3-24 2-21-12h50v118c-3 37 42 32 69 25v-131l-25-4v-8h54v153c8 3 24-2 21 12h-48" id="M"/><path fill="#fff" d="M41-130c7 48 86 23 86 84 0 56-69 57-112 41v-40c20 0 9 29 31 31 35 19 77-26 41-50-27-18-72-13-72-59 0-50 58-52 100-41v36c-19 1-8-25-28-25-21-7-50-1-46 23" id="N"/><path fill="#fff" d="M84-170c49 0 66 33 63 87H46c-8 60 38 80 95 63v10C128-2 108 4 88 4 34 4 14-29 14-84c-1-54 22-86 70-86zm33 73c12-57-57-82-69-24-1 7-2 15-2 24h71" id="O"/><path fill="#fff" d="M57-145c16-10 35-24 60-25v45c-19 1-8-30-40-17l-20 6v124l29 4v8H7v-8l21-4v-141c-8-3-24 2-21-12h48" id="P"/><g id="a"><use transform="matrix(0.06172839506172839,0,0,0.06172839506172839,0,0)" xlink:href="#J"/><use transform="matrix(0.06172839506172839,0,0,0.06172839506172839,15.987654320987653,0)" xlink:href="#K"/><use transform="matrix(0.06172839506172839,0,0,0.06172839506172839,27.098765432098766,0)" xlink:href="#L"/><use transform="matrix(0.06172839506172839,0,0,0.06172839506172839,38.20987654320987,0)" xlink:href="#M"/><use transform="matrix(0.06172839506172839,0,0,0.06172839506172839,49.32098765432099,0)" xlink:href="#N"/><use transform="matrix(0.06172839506172839,0,0,0.06172839506172839,57.96296296296296,0)" xlink:href="#O"/><use transform="matrix(0.06172839506172839,0,0,0.06172839506172839,67.77777777777777,0)" xlink:href="#P"/></g><path fill="#fff" d="M75-108c48 3 76-12 76-58s-28-57-76-54v112zm111-58c-1 60-46 78-111 74v78l37 5v9H13v-9l28-5v-208l-31-4v-10c81 1 178-14 176 70" id="Q"/><path fill="#fff" d="M238-236v10l-27 4-81 79L231-14l25 5v9h-57l-93-119-31 25v80l33 5v9H10v-9l31-5v-208l-31-4v-10h95v10l-30 4v111l112-111-23-4v-10h74" id="R"/><g id="b"><use transform="matrix(0.06172839506172839,0,0,0.06172839506172839,0,0)" xlink:href="#Q"/><use transform="matrix(0.06172839506172839,0,0,0.06172839506172839,12.345679012345679,0)" xlink:href="#R"/></g><path fill="#fff" d="M47-200c-23 0-25-39 0-38 13 0 18 7 20 19-1 11-8 19-20 19zM65-12l28 4v8H8v-8l28-4v-141l-24-4v-8h53v153" id="S"/><path fill="#fff" d="M13-81c0-71 46-101 114-85l-1-72-28-4v-8h57v238c8 3 24-2 21 12h-47l-2-12C80 23 13-1 13-81zm77-74c-37 1-44 33-45 74 0 38 9 66 45 66 14 0 27-3 36-7v-130c-10-1-24-3-36-3" id="T"/><g id="c"><use transform="matrix(0.06172839506172839,0,0,0.06172839506172839,0,0)" xlink:href="#S"/><use transform="matrix(0.06172839506172839,0,0,0.06172839506172839,6.172839506172839,0)" xlink:href="#T"/></g><path fill="#fff" d="M75-131c50 2 93 3 93-48 0-46-48-41-93-41v89zm0 115c55 4 111 6 111-51 0-53-58-48-111-48v99zm148-52C223 24 102-3 10 0v-9l31-5v-208l-31-4v-10c77 6 193-24 194 56 0 33-20 48-48 54 36 5 67 20 67 58" id="U"/><path fill="#fff" d="M77-14l30 5v9H13v-9l30-5v-208l-30-4v-10h94v10l-30 4v208" id="V"/><path fill="#fff" d="M52-115c0 90 69 126 140 93v-67l-30-5v-9h87v9l-23 5v77c-27 8-56 16-90 16C59 2 15-37 15-115c-1-82 41-123 122-123 31 0 59 4 83 10v51h-12l-5-29c-15-12-38-18-65-18-66-1-86 42-86 109" id="W"/><path fill="#fff" d="M203-222l-32-4v-10h81v10l-31 4V0h-17L59-212v198l32 5v9H10v-9l31-5v-208l-31-4v-10h72L203-61v-161" id="X"/><path fill="#fff" d="M55 0v-9l38-5v-207c-22 1-53 0-70 4l-5 37H7v-56h207v56h-12l-5-37-70-3v206l37 5v9H55" id="Y"/><g id="d"><use transform="matrix(0.06172839506172839,0,0,0.06172839506172839,0,0)" xlink:href="#U"/><use transform="matrix(0.06172839506172839,0,0,0.06172839506172839,14.814814814814813,0)" xlink:href="#V"/><use transform="matrix(0.06172839506172839,0,0,0.06172839506172839,22.160493827160494,0)" xlink:href="#W"/><use transform="matrix(0.06172839506172839,0,0,0.06172839506172839,38.148148148148145,0)" xlink:href="#V"/><use transform="matrix(0.06172839506172839,0,0,0.06172839506172839,45.49382716049382,0)" xlink:href="#X"/><use transform="matrix(0.06172839506172839,0,0,0.06172839506172839,61.481481481481474,0)" xlink:href="#Y"/></g><path fill="#fff" d="M161-154L85 37C75 66 49 86 8 75V39c18-2 6 24 29 21 30-4 38-32 47-58L21-153c-7-3-20 0-17-12h77v8l-26 4 45 116 43-116-26-4v-8h62v8" id="Z"/><g id="e"><use transform="matrix(0.06172839506172839,0,0,0.06172839506172839,0,0)" xlink:href="#R"/><use transform="matrix(0.06172839506172839,0,0,0.06172839506172839,15.987654320987653,0)" xlink:href="#O"/><use transform="matrix(0.06172839506172839,0,0,0.06172839506172839,25.80246913580247,0)" xlink:href="#Z"/></g><path fill="#fff" d="M103-236c-39-15-35 32-34 71h44v15H69v136l35 6v8H15v-8l25-6v-136H11v-9l29-7c-6-59 23-100 80-84v36c-15 2-12-14-17-22" id="aa"/><path fill="#fff" d="M54-38c-1 25 24 26 44 20v12C71 10 25 9 25-35v-115H4c-2-14 14-10 21-15l18-38h11v38h38v15H54v112" id="ab"/><path fill="#fff" d="M32-163c41-10 102-14 102 39v112c8 3 24-2 21 12h-45l-4-17C83 13 3 13 13-46c-2-50 45-50 92-51 4-36-5-70-42-56-6 2-12 4-16 6-4 7 0 23-15 20v-36zM42-47c0 41 41 33 63 22v-59c-34 1-63-1-63 37" id="ac"/><path fill="#fff" d="M126-118c4-37-42-32-68-25v131l24 4v8H8C5-13 21-9 28-12v-141c-7-3-23 1-20-12h48l1 13c22-15 77-30 92 2 32-22 104-36 104 29v109c8 3 24-2 21 12h-75v-8l25-4v-106c3-39-45-31-72-24 7 37 1 88 3 130l25 4v8h-78v-8l24-4v-106" id="ad"/><g id="f"><use transform="matrix(0.06172839506172839,0,0,0.06172839506172839,0,0)" xlink:href="#aa"/><use transform="matrix(0.06172839506172839,0,0,0.06172839506172839,7.345679012345679,0)" xlink:href="#S"/><use transform="matrix(0.06172839506172839,0,0,0.06172839506172839,13.518518518518519,0)" xlink:href="#P"/><use transform="matrix(0.06172839506172839,0,0,0.06172839506172839,20.864197530864196,0)" xlink:href="#N"/><use transform="matrix(0.06172839506172839,0,0,0.06172839506172839,29.50617283950617,0)" xlink:href="#ab"/><use transform="matrix(0.06172839506172839,0,0,0.06172839506172839,35.67901234567901,0)" xlink:href="#L"/><use transform="matrix(0.06172839506172839,0,0,0.06172839506172839,46.79012345679013,0)" xlink:href="#K"/><use transform="matrix(0.06172839506172839,0,0,0.06172839506172839,57.90123456790124,0)" xlink:href="#ac"/><use transform="matrix(0.06172839506172839,0,0,0.06172839506172839,67.71604938271605,0)" xlink:href="#ad"/><use transform="matrix(0.06172839506172839,0,0,0.06172839506172839,85,0)" xlink:href="#O"/></g><path fill="#fff" d="M256-236v10l-26 4L135 5h-9L31-222l-27-4v-10h95v10l-31 4 71 174 71-174-31-4v-10h77" id="ae"/><path fill="#fff" d="M81-9v9H4v-9l26-5 81-224h33l83 224 30 5v9h-99v-9l31-5-23-68H73L49-14zm38-203L78-98h82" id="af"/><path fill="#fff" d="M199-173c-1 36-21 56-49 65l64 94 26 5v9h-57l-66-103H75v89l35 5v9H13v-9l28-5v-208l-31-4v-10c80 4 190-20 189 63zM75-119c50 2 89-1 89-51 0-49-39-52-89-50v101" id="ag"/><path fill="#fff" d="M52-115c0 93 80 130 150 87l7-35h11l-1 55c-23 7-52 12-83 12C60 4 19-37 15-115c-5-113 97-141 201-114l1 51h-12l-5-30c-15-9-39-16-62-16-66 0-86 41-86 109" id="ah"/><path fill="#fff" d="M10 0v-9l31-5v-208l-31-4v-10h95v10l-30 4v93h110v-93l-30-4v-10h94v10l-30 4v208l30 5v9h-94v-9l30-5v-99H75v99l30 5v9H10" id="ai"/><g id="g"><use transform="matrix(0.06172839506172839,0,0,0.06172839506172839,0,0)" xlink:href="#ae"/><use transform="matrix(0.06172839506172839,0,0,0.06172839506172839,13.148148148148147,0)" xlink:href="#af"/><use transform="matrix(0.06172839506172839,0,0,0.06172839506172839,29.1358024691358,0)" xlink:href="#ag"/><use transform="matrix(0.06172839506172839,0,0,0.06172839506172839,43.95061728395061,0)" xlink:href="#ah"/><use transform="matrix(0.06172839506172839,0,0,0.06172839506172839,58.76543209876543,0)" xlink:href="#ai"/><use transform="matrix(0.06172839506172839,0,0,0.06172839506172839,74.75308641975309,0)" xlink:href="#af"/><use transform="matrix(0.06172839506172839,0,0,0.06172839506172839,90.74074074074075,0)" xlink:href="#ag"/></g><path fill="#fff" d="M65-12l28 4v8H7v-8l28-4v-226l-28-4v-8h58v238" id="aj"/><g id="h"><use transform="matrix(0.06172839506172839,0,0,0.06172839506172839,0,0)" xlink:href="#aj"/><use transform="matrix(0.06172839506172839,0,0,0.06172839506172839,6.172839506172839,0)" xlink:href="#ac"/><use transform="matrix(0.06172839506172839,0,0,0.06172839506172839,15.987654320987653,0)" xlink:href="#N"/><use transform="matrix(0.06172839506172839,0,0,0.06172839506172839,24.62962962962963,0)" xlink:href="#ab"/><use transform="matrix(0.06172839506172839,0,0,0.06172839506172839,30.80246913580247,0)" xlink:href="#L"/><use transform="matrix(0.06172839506172839,0,0,0.06172839506172839,41.91358024691358,0)" xlink:href="#K"/><use transform="matrix(0.06172839506172839,0,0,0.06172839506172839,53.0246913580247,0)" xlink:href="#ac"/><use transform="matrix(0.06172839506172839,0,0,0.06172839506172839,62.83950617283951,0)" xlink:href="#ad"/><use transform="matrix(0.06172839506172839,0,0,0.06172839506172839,80.12345679012347,0)" xlink:href="#O"/></g><path fill="#fff" d="M141-152c28 39 5 97-54 97-9 0-20-2-27-3L49-35c29 22 130-14 124 52-4 45-38 57-88 61C21 83-8 26 45-2 33-6 22-15 21-31l28-31c-19-9-28-26-28-51-2-51 53-65 100-52l38-20 7 8zM85 64c35 0 61-11 61-42 0-35-57-17-89-21-9 8-16 19-17 34 0 25 19 29 45 29zM52-113c1 26 7 46 35 44 28-1 34-16 35-44 0-26-6-43-34-43s-36 17-36 43" id="ak"/><g id="i"><use transform="matrix(0.06172839506172839,0,0,0.06172839506172839,0,0)" xlink:href="#ak"/><use transform="matrix(0.06172839506172839,0,0,0.06172839506172839,11.11111111111111,0)" xlink:href="#O"/><use transform="matrix(0.06172839506172839,0,0,0.06172839506172839,20.925925925925924,0)" xlink:href="#K"/><use transform="matrix(0.06172839506172839,0,0,0.06172839506172839,32.03703703703704,0)" xlink:href="#T"/><use transform="matrix(0.06172839506172839,0,0,0.06172839506172839,43.14814814814815,0)" xlink:href="#O"/><use transform="matrix(0.06172839506172839,0,0,0.06172839506172839,52.96296296296297,0)" xlink:href="#P"/></g><path fill="#fff" d="M45-84c0 64 52 80 104 63 1 25-30 25-55 25-56 0-80-32-80-88 0-76 62-98 131-80v46h-10c-5-15-4-31-23-35-47-10-67 21-67 69" id="al"/><g id="j"><use transform="matrix(0.06172839506172839,0,0,0.06172839506172839,0,0)" xlink:href="#aa"/><use transform="matrix(0.06172839506172839,0,0,0.06172839506172839,7.345679012345679,0)" xlink:href="#ac"/><use transform="matrix(0.06172839506172839,0,0,0.06172839506172839,17.160493827160494,0)" xlink:href="#al"/><use transform="matrix(0.06172839506172839,0,0,0.06172839506172839,26.97530864197531,0)" xlink:href="#M"/><use transform="matrix(0.06172839506172839,0,0,0.06172839506172839,38.08641975308642,0)" xlink:href="#aj"/><use transform="matrix(0.06172839506172839,0,0,0.06172839506172839,44.25925925925926,0)" xlink:href="#ab"/><use transform="matrix(0.06172839506172839,0,0,0.06172839506172839,50.4320987654321,0)" xlink:href="#Z"/></g><g id="k"><use transform="matrix(0.06172839506172839,0,0,0.06172839506172839,0,0)" xlink:href="#O"/><use transform="matrix(0.06172839506172839,0,0,0.06172839506172839,9.814814814814815,0)" xlink:href="#ad"/><use transform="matrix(0.06172839506172839,0,0,0.06172839506172839,27.098765432098766,0)" xlink:href="#ac"/><use transform="matrix(0.06172839506172839,0,0,0.06172839506172839,36.91358024691358,0)" xlink:href="#S"/><use transform="matrix(0.06172839506172839,0,0,0.06172839506172839,43.086419753086425,0)" xlink:href="#aj"/></g><path fill="#fff" d="M90-170c52 0 76 32 76 87 0 54-24 87-77 87-51 0-75-34-75-87 0-54 24-87 76-87zM89-10c39 0 46-35 46-73 0-39-7-73-46-73-39 1-44 34-44 73s6 72 44 73" id="am"/><g id="l"><use transform="matrix(0.06172839506172839,0,0,0.06172839506172839,0,0)" xlink:href="#M"/><use transform="matrix(0.06172839506172839,0,0,0.06172839506172839,11.11111111111111,0)" xlink:href="#N"/><use transform="matrix(0.06172839506172839,0,0,0.06172839506172839,19.753086419753085,0)" xlink:href="#O"/><use transform="matrix(0.06172839506172839,0,0,0.06172839506172839,29.5679012345679,0)" xlink:href="#P"/><use transform="matrix(0.06172839506172839,0,0,0.06172839506172839,36.913580246913575,0)" xlink:href="#L"/><use transform="matrix(0.06172839506172839,0,0,0.06172839506172839,48.02469135802468,0)" xlink:href="#P"/><use transform="matrix(0.06172839506172839,0,0,0.06172839506172839,55.37037037037036,0)" xlink:href="#am"/><use transform="matrix(0.06172839506172839,0,0,0.06172839506172839,66.48148148148147,0)" xlink:href="#aj"/><use transform="matrix(0.06172839506172839,0,0,0.06172839506172839,72.6543209876543,0)" xlink:href="#O"/></g><path fill="#fff" d="M166-85c3 67-44 102-111 85l1 64 29 4v9H6v-9l21-4v-217c-7-3-22 1-19-12h46l1 9c11-8 26-14 45-14 47 2 64 36 66 85zM56-13c53 14 83-14 78-72 7-53-33-79-78-60v132" id="an"/><path fill="#fff" d="M126-119c3-38-42-31-69-25v132l23 4v8H7v-8l21-4v-226l-24-4v-8h53l-1 98c31-22 99-31 99 31v109c7 3 23-1 20 12h-71v-8l22-4v-107" id="ao"/><g id="m"><use transform="matrix(0.06172839506172839,0,0,0.06172839506172839,0,0)" xlink:href="#an"/><use transform="matrix(0.06172839506172839,0,0,0.06172839506172839,11.11111111111111,0)" xlink:href="#ac"/><use transform="matrix(0.06172839506172839,0,0,0.06172839506172839,20.925925925925924,0)" xlink:href="#N"/><use transform="matrix(0.06172839506172839,0,0,0.06172839506172839,29.5679012345679,0)" xlink:href="#N"/><use transform="matrix(0.06172839506172839,0,0,0.06172839506172839,38.20987654320987,0)" xlink:href="#J"/><use transform="matrix(0.06172839506172839,0,0,0.06172839506172839,54.197530864197525,0)" xlink:href="#am"/><use transform="matrix(0.06172839506172839,0,0,0.06172839506172839,65.30864197530863,0)" xlink:href="#P"/><use transform="matrix(0.06172839506172839,0,0,0.06172839506172839,72.65432098765432,0)" xlink:href="#T"/><use transform="matrix(0.06172839506172839,0,0,0.06172839506172839,83.76543209876543,0)" xlink:href="#L"/><use transform="matrix(0.06172839506172839,0,0,0.06172839506172839,94.87654320987654,0)" xlink:href="#ao"/><use transform="matrix(0.06172839506172839,0,0,0.06172839506172839,105.98765432098766,0)" xlink:href="#ac"/><use transform="matrix(0.06172839506172839,0,0,0.06172839506172839,115.80246913580247,0)" xlink:href="#N"/><use transform="matrix(0.06172839506172839,0,0,0.06172839506172839,124.44444444444444,0)" xlink:href="#ao"/></g><g id="n"><use transform="matrix(0.06172839506172839,0,0,0.06172839506172839,0,0)" xlink:href="#J"/><use transform="matrix(0.06172839506172839,0,0,0.06172839506172839,15.987654320987653,0)" xlink:href="#K"/><use transform="matrix(0.06172839506172839,0,0,0.06172839506172839,27.098765432098766,0)" xlink:href="#L"/><use transform="matrix(0.06172839506172839,0,0,0.06172839506172839,38.20987654320987,0)" xlink:href="#ak"/><use transform="matrix(0.06172839506172839,0,0,0.06172839506172839,49.32098765432099,0)" xlink:href="#P"/><use transform="matrix(0.06172839506172839,0,0,0.06172839506172839,56.666666666666664,0)" xlink:href="#am"/><use transform="matrix(0.06172839506172839,0,0,0.06172839506172839,67.77777777777777,0)" xlink:href="#M"/><use transform="matrix(0.06172839506172839,0,0,0.06172839506172839,78.88888888888889,0)" xlink:href="#an"/></g><g id="o"><use transform="matrix(0.06172839506172839,0,0,0.06172839506172839,0,0)" xlink:href="#ak"/><use transform="matrix(0.06172839506172839,0,0,0.06172839506172839,11.11111111111111,0)" xlink:href="#P"/><use transform="matrix(0.06172839506172839,0,0,0.06172839506172839,18.45679012345679,0)" xlink:href="#am"/><use transform="matrix(0.06172839506172839,0,0,0.06172839506172839,29.567901234567902,0)" xlink:href="#M"/><use transform="matrix(0.06172839506172839,0,0,0.06172839506172839,40.67901234567901,0)" xlink:href="#an"/><use transform="matrix(0.06172839506172839,0,0,0.06172839506172839,51.79012345679013,0)" xlink:href="#L"/><use transform="matrix(0.06172839506172839,0,0,0.06172839506172839,62.90123456790124,0)" xlink:href="#K"/><use transform="matrix(0.06172839506172839,0,0,0.06172839506172839,74.01234567901236,0)" xlink:href="#ac"/><use transform="matrix(0.06172839506172839,0,0,0.06172839506172839,83.82716049382717,0)" xlink:href="#ad"/><use transform="matrix(0.06172839506172839,0,0,0.06172839506172839,101.11111111111111,0)" xlink:href="#O"/></g><g id="p"><use transform="matrix(0.06172839506172839,0,0,0.06172839506172839,0,0)" xlink:href="#ak"/><use transform="matrix(0.06172839506172839,0,0,0.06172839506172839,11.11111111111111,0)" xlink:href="#P"/><use transform="matrix(0.06172839506172839,0,0,0.06172839506172839,18.45679012345679,0)" xlink:href="#am"/><use transform="matrix(0.06172839506172839,0,0,0.06172839506172839,29.567901234567902,0)" xlink:href="#M"/><use transform="matrix(0.06172839506172839,0,0,0.06172839506172839,40.67901234567901,0)" xlink:href="#an"/><use transform="matrix(0.06172839506172839,0,0,0.06172839506172839,51.79012345679013,0)" xlink:href="#L"/><use transform="matrix(0.06172839506172839,0,0,0.06172839506172839,62.90123456790124,0)" xlink:href="#T"/><use transform="matrix(0.06172839506172839,0,0,0.06172839506172839,74.01234567901236,0)" xlink:href="#O"/><use transform="matrix(0.06172839506172839,0,0,0.06172839506172839,83.82716049382717,0)" xlink:href="#N"/><use transform="matrix(0.06172839506172839,0,0,0.06172839506172839,92.46913580246914,0)" xlink:href="#al"/><use transform="matrix(0.06172839506172839,0,0,0.06172839506172839,102.28395061728395,0)" xlink:href="#P"/><use transform="matrix(0.06172839506172839,0,0,0.06172839506172839,109.62962962962963,0)" xlink:href="#S"/><use transform="matrix(0.06172839506172839,0,0,0.06172839506172839,115.80246913580247,0)" xlink:href="#an"/><use transform="matrix(0.06172839506172839,0,0,0.06172839506172839,126.91358024691357,0)" xlink:href="#ab"/><use transform="matrix(0.06172839506172839,0,0,0.06172839506172839,133.08641975308643,0)" xlink:href="#S"/><use transform="matrix(0.06172839506172839,0,0,0.06172839506172839,139.25925925925927,0)" xlink:href="#am"/><use transform="matrix(0.06172839506172839,0,0,0.06172839506172839,150.37037037037038,0)" xlink:href="#K"/></g><g id="q"><use transform="matrix(0.06172839506172839,0,0,0.06172839506172839,0,0)" xlink:href="#al"/><use transform="matrix(0.06172839506172839,0,0,0.06172839506172839,9.814814814814815,0)" xlink:href="#ac"/><use transform="matrix(0.06172839506172839,0,0,0.06172839506172839,19.62962962962963,0)" xlink:href="#ab"/><use transform="matrix(0.06172839506172839,0,0,0.06172839506172839,25.80246913580247,0)" xlink:href="#O"/><use transform="matrix(0.06172839506172839,0,0,0.06172839506172839,35.617283950617285,0)" xlink:href="#ak"/><use transform="matrix(0.06172839506172839,0,0,0.06172839506172839,46.72839506172839,0)" xlink:href="#am"/><use transform="matrix(0.06172839506172839,0,0,0.06172839506172839,57.839506172839506,0)" xlink:href="#P"/><use transform="matrix(0.06172839506172839,0,0,0.06172839506172839,65.18518518518519,0)" xlink:href="#Z"/></g><path fill="#fff" d="M75-106v92l39 5v9H13v-9l28-5v-208l-31-4v-10h177v57h-11l-6-38c-28-4-63-3-95-3v98h69l5-28h11v73h-11l-5-29H75" id="ap"/><g id="r"><use transform="matrix(0.06172839506172839,0,0,0.06172839506172839,0,0)" xlink:href="#ap"/><use transform="matrix(0.06172839506172839,0,0,0.06172839506172839,12.345679012345679,0)" xlink:href="#R"/></g><g id="s"><use transform="matrix(0.06172839506172839,0,0,0.06172839506172839,0,0)" xlink:href="#am"/><use transform="matrix(0.06172839506172839,0,0,0.06172839506172839,11.11111111111111,0)" xlink:href="#J"/><use transform="matrix(0.06172839506172839,0,0,0.06172839506172839,27.098765432098766,0)" xlink:href="#K"/><use transform="matrix(0.06172839506172839,0,0,0.06172839506172839,38.20987654320987,0)" xlink:href="#O"/><use transform="matrix(0.06172839506172839,0,0,0.06172839506172839,48.02469135802469,0)" xlink:href="#P"/><use transform="matrix(0.06172839506172839,0,0,0.06172839506172839,55.37037037037037,0)" xlink:href="#L"/><use transform="matrix(0.06172839506172839,0,0,0.06172839506172839,66.48148148148148,0)" xlink:href="#S"/><use transform="matrix(0.06172839506172839,0,0,0.06172839506172839,72.65432098765432,0)" xlink:href="#T"/></g><g id="t"><use transform="matrix(0.06172839506172839,0,0,0.06172839506172839,0,0)" xlink:href="#J"/><use transform="matrix(0.06172839506172839,0,0,0.06172839506172839,15.987654320987653,0)" xlink:href="#K"/><use transform="matrix(0.06172839506172839,0,0,0.06172839506172839,27.098765432098766,0)" xlink:href="#L"/><use transform="matrix(0.06172839506172839,0,0,0.06172839506172839,38.20987654320987,0)" xlink:href="#N"/><use transform="matrix(0.06172839506172839,0,0,0.06172839506172839,46.85185185185185,0)" xlink:href="#O"/><use transform="matrix(0.06172839506172839,0,0,0.06172839506172839,56.666666666666664,0)" xlink:href="#N"/><use transform="matrix(0.06172839506172839,0,0,0.06172839506172839,65.30864197530863,0)" xlink:href="#N"/><use transform="matrix(0.06172839506172839,0,0,0.06172839506172839,73.9506172839506,0)" xlink:href="#S"/><use transform="matrix(0.06172839506172839,0,0,0.06172839506172839,80.12345679012344,0)" xlink:href="#am"/><use transform="matrix(0.06172839506172839,0,0,0.06172839506172839,91.23456790123456,0)" xlink:href="#K"/></g><path fill="#fff" d="M60-80l68-73c-7-3-20 0-17-12h58c3 13-13 9-20 12l-47 48 60 93c7 3 21-1 18 12h-68c-3-12 9-9 15-12L82-83 60-60v48c7 3 21-1 18 12H10v-8l21-4v-226l-24-4v-8h53v170" id="aq"/><g id="u"><use transform="matrix(0.06172839506172839,0,0,0.06172839506172839,0,0)" xlink:href="#N"/><use transform="matrix(0.06172839506172839,0,0,0.06172839506172839,8.641975308641975,0)" xlink:href="#O"/><use transform="matrix(0.06172839506172839,0,0,0.06172839506172839,18.45679012345679,0)" xlink:href="#N"/><use transform="matrix(0.06172839506172839,0,0,0.06172839506172839,27.098765432098766,0)" xlink:href="#N"/><use transform="matrix(0.06172839506172839,0,0,0.06172839506172839,35.74074074074074,0)" xlink:href="#S"/><use transform="matrix(0.06172839506172839,0,0,0.06172839506172839,41.91358024691358,0)" xlink:href="#am"/><use transform="matrix(0.06172839506172839,0,0,0.06172839506172839,53.0246913580247,0)" xlink:href="#K"/><use transform="matrix(0.06172839506172839,0,0,0.06172839506172839,64.13580246913581,0)" xlink:href="#L"/><use transform="matrix(0.06172839506172839,0,0,0.06172839506172839,75.24691358024693,0)" xlink:href="#aq"/><use transform="matrix(0.06172839506172839,0,0,0.06172839506172839,86.35802469135804,0)" xlink:href="#O"/><use transform="matrix(0.06172839506172839,0,0,0.06172839506172839,96.17283950617285,0)" xlink:href="#Z"/></g><g id="v"><use transform="matrix(0.06172839506172839,0,0,0.06172839506172839,0,0)" xlink:href="#M"/><use transform="matrix(0.06172839506172839,0,0,0.06172839506172839,11.11111111111111,0)" xlink:href="#N"/><use transform="matrix(0.06172839506172839,0,0,0.06172839506172839,19.753086419753085,0)" xlink:href="#O"/><use transform="matrix(0.06172839506172839,0,0,0.06172839506172839,29.5679012345679,0)" xlink:href="#P"/><use transform="matrix(0.06172839506172839,0,0,0.06172839506172839,36.913580246913575,0)" xlink:href="#L"/><use transform="matrix(0.06172839506172839,0,0,0.06172839506172839,48.02469135802468,0)" xlink:href="#S"/><use transform="matrix(0.06172839506172839,0,0,0.06172839506172839,54.197530864197525,0)" xlink:href="#T"/></g><g id="w"><use transform="matrix(0.06172839506172839,0,0,0.06172839506172839,0,0)" xlink:href="#J"/><use transform="matrix(0.06172839506172839,0,0,0.06172839506172839,15.987654320987653,0)" xlink:href="#K"/><use transform="matrix(0.06172839506172839,0,0,0.06172839506172839,27.098765432098766,0)" xlink:href="#L"/><use transform="matrix(0.06172839506172839,0,0,0.06172839506172839,38.20987654320987,0)" xlink:href="#M"/><use transform="matrix(0.06172839506172839,0,0,0.06172839506172839,49.32098765432099,0)" xlink:href="#N"/><use transform="matrix(0.06172839506172839,0,0,0.06172839506172839,57.96296296296296,0)" xlink:href="#O"/><use transform="matrix(0.06172839506172839,0,0,0.06172839506172839,67.77777777777777,0)" xlink:href="#P"/><use transform="matrix(0.06172839506172839,0,0,0.06172839506172839,75.12345679012346,0)" xlink:href="#L"/><use transform="matrix(0.06172839506172839,0,0,0.06172839506172839,86.23456790123457,0)" xlink:href="#ak"/><use transform="matrix(0.06172839506172839,0,0,0.06172839506172839,97.34567901234568,0)" xlink:href="#P"/><use transform="matrix(0.06172839506172839,0,0,0.06172839506172839,104.69135802469137,0)" xlink:href="#am"/><use transform="matrix(0.06172839506172839,0,0,0.06172839506172839,115.80246913580248,0)" xlink:href="#M"/><use transform="matrix(0.06172839506172839,0,0,0.06172839506172839,126.9135802469136,0)" xlink:href="#an"/></g><g id="x"><use transform="matrix(0.06172839506172839,0,0,0.06172839506172839,0,0)" xlink:href="#ak"/><use transform="matrix(0.06172839506172839,0,0,0.06172839506172839,11.11111111111111,0)" xlink:href="#P"/><use transform="matrix(0.06172839506172839,0,0,0.06172839506172839,18.45679012345679,0)" xlink:href="#am"/><use transform="matrix(0.06172839506172839,0,0,0.06172839506172839,29.567901234567902,0)" xlink:href="#M"/><use transform="matrix(0.06172839506172839,0,0,0.06172839506172839,40.67901234567901,0)" xlink:href="#an"/><use transform="matrix(0.06172839506172839,0,0,0.06172839506172839,51.79012345679013,0)" xlink:href="#L"/><use transform="matrix(0.06172839506172839,0,0,0.06172839506172839,62.90123456790124,0)" xlink:href="#S"/><use transform="matrix(0.06172839506172839,0,0,0.06172839506172839,69.07407407407408,0)" xlink:href="#T"/></g><path fill="#fff" d="M50-238c28 0 22 38 0 38-10-2-19-7-19-19s7-18 19-19zM3 58c24 15 35-10 35-42v-169l-25-4v-8h54V7c4 51-28 81-77 66V38C3 36-1 51 3 58" id="ar"/><path fill="#fff" d="M13-82c-2-68 46-101 114-84 8-3 15-8 28-7V64l18 4v9h-70v-9l23-4c1-25-2-53 2-75-11 8-27 15-47 15-49-1-66-35-68-86zm113-70c-53-13-86 12-81 70-6 54 34 80 81 61v-131" id="as"/><g id="y"><use transform="matrix(0.06172839506172839,0,0,0.06172839506172839,0,0)" xlink:href="#J"/><use transform="matrix(0.06172839506172839,0,0,0.06172839506172839,15.987654320987653,0)" xlink:href="#K"/><use transform="matrix(0.06172839506172839,0,0,0.06172839506172839,27.098765432098766,0)" xlink:href="#L"/><use transform="matrix(0.06172839506172839,0,0,0.06172839506172839,38.20987654320987,0)" xlink:href="#ar"/><use transform="matrix(0.06172839506172839,0,0,0.06172839506172839,44.382716049382715,0)" xlink:href="#am"/><use transform="matrix(0.06172839506172839,0,0,0.06172839506172839,55.49382716049382,0)" xlink:href="#S"/><use transform="matrix(0.06172839506172839,0,0,0.06172839506172839,61.666666666666664,0)" xlink:href="#K"/><use transform="matrix(0.06172839506172839,0,0,0.06172839506172839,72.77777777777777,0)" xlink:href="#L"/><use transform="matrix(0.06172839506172839,0,0,0.06172839506172839,83.88888888888889,0)" xlink:href="#P"/><use transform="matrix(0.06172839506172839,0,0,0.06172839506172839,91.23456790123457,0)" xlink:href="#O"/><use transform="matrix(0.06172839506172839,0,0,0.06172839506172839,101.04938271604938,0)" xlink:href="#as"/><use transform="matrix(0.06172839506172839,0,0,0.06172839506172839,112.1604938271605,0)" xlink:href="#M"/><use transform="matrix(0.06172839506172839,0,0,0.06172839506172839,123.27160493827161,0)" xlink:href="#O"/><use transform="matrix(0.06172839506172839,0,0,0.06172839506172839,133.08641975308643,0)" xlink:href="#N"/><use transform="matrix(0.06172839506172839,0,0,0.06172839506172839,141.7283950617284,0)" xlink:href="#ab"/></g><g id="z"><use transform="matrix(0.06172839506172839,0,0,0.06172839506172839,0,0)" xlink:href="#J"/><use transform="matrix(0.06172839506172839,0,0,0.06172839506172839,15.987654320987653,0)" xlink:href="#K"/><use transform="matrix(0.06172839506172839,0,0,0.06172839506172839,27.098765432098766,0)" xlink:href="#L"/><use transform="matrix(0.06172839506172839,0,0,0.06172839506172839,38.20987654320987,0)" xlink:href="#ad"/><use transform="matrix(0.06172839506172839,0,0,0.06172839506172839,55.49382716049382,0)" xlink:href="#O"/><use transform="matrix(0.06172839506172839,0,0,0.06172839506172839,65.30864197530863,0)" xlink:href="#N"/><use transform="matrix(0.06172839506172839,0,0,0.06172839506172839,73.9506172839506,0)" xlink:href="#N"/><use transform="matrix(0.06172839506172839,0,0,0.06172839506172839,82.59259259259258,0)" xlink:href="#ac"/><use transform="matrix(0.06172839506172839,0,0,0.06172839506172839,92.40740740740739,0)" xlink:href="#ak"/><use transform="matrix(0.06172839506172839,0,0,0.06172839506172839,103.5185185185185,0)" xlink:href="#O"/></g><g id="A"><use transform="matrix(0.06172839506172839,0,0,0.06172839506172839,0,0)" xlink:href="#ab"/><use transform="matrix(0.06172839506172839,0,0,0.06172839506172839,6.172839506172839,0)" xlink:href="#S"/><use transform="matrix(0.06172839506172839,0,0,0.06172839506172839,12.345679012345679,0)" xlink:href="#ad"/><use transform="matrix(0.06172839506172839,0,0,0.06172839506172839,29.629629629629626,0)" xlink:href="#O"/><use transform="matrix(0.06172839506172839,0,0,0.06172839506172839,39.44444444444444,0)" xlink:href="#L"/><use transform="matrix(0.06172839506172839,0,0,0.06172839506172839,50.55555555555556,0)" xlink:href="#ac"/><use transform="matrix(0.06172839506172839,0,0,0.06172839506172839,60.370370370370374,0)" xlink:href="#T"/><use transform="matrix(0.06172839506172839,0,0,0.06172839506172839,71.48148148148148,0)" xlink:href="#T"/><use transform="matrix(0.06172839506172839,0,0,0.06172839506172839,82.5925925925926,0)" xlink:href="#O"/><use transform="matrix(0.06172839506172839,0,0,0.06172839506172839,92.4074074074074,0)" xlink:href="#T"/></g><path fill="#fff" d="M152 0h-7L59-203v189l32 5v9H10v-9l31-5v-208l-31-4v-10h72l76 180 84-180h68v10l-31 4v208l31 5v9h-96v-9l32-5v-189" id="at"/><path fill="#fff" d="M10-9l31-5v-208l-31-4v-10h177v57h-11l-6-38c-28-4-63-3-95-3v92h63l6-28h11v73h-11l-6-29H75v96l105-3 10-43h12l-3 62H10v-9" id="au"/><path fill="#fff" d="M178-68c0 79-95 82-154 59v-54h12c1 35 22 52 60 52 50 0 69-58 33-82-39-24-105-21-105-85 0-67 86-66 142-53v49h-12l-6-29c-31-27-121-7-89 42 28 43 119 24 119 101" id="av"/><g id="B"><use transform="matrix(0.06172839506172839,0,0,0.06172839506172839,0,0)" xlink:href="#Y"/><use transform="matrix(0.06172839506172839,0,0,0.06172839506172839,13.518518518518517,0)" xlink:href="#V"/><use transform="matrix(0.06172839506172839,0,0,0.06172839506172839,20.864197530864196,0)" xlink:href="#at"/><use transform="matrix(0.06172839506172839,0,0,0.06172839506172839,40.61728395061728,0)" xlink:href="#au"/><use transform="matrix(0.06172839506172839,0,0,0.06172839506172839,54.1358024691358,0)" xlink:href="#av"/><use transform="matrix(0.06172839506172839,0,0,0.06172839506172839,66.48148148148148,0)" xlink:href="#Y"/><use transform="matrix(0.06172839506172839,0,0,0.06172839506172839,78.20987654320987,0)" xlink:href="#af"/><use transform="matrix(0.06172839506172839,0,0,0.06172839506172839,94.19753086419753,0)" xlink:href="#at"/><use transform="matrix(0.06172839506172839,0,0,0.06172839506172839,113.95061728395062,0)" xlink:href="#Q"/></g><g id="C"><use transform="matrix(0.06172839506172839,0,0,0.06172839506172839,0,0)" xlink:href="#ad"/><use transform="matrix(0.06172839506172839,0,0,0.06172839506172839,17.28395061728395,0)" xlink:href="#N"/><use transform="matrix(0.06172839506172839,0,0,0.06172839506172839,25.925925925925924,0)" xlink:href="#ak"/></g><g id="D"><use transform="matrix(0.06172839506172839,0,0,0.06172839506172839,0,0)" xlink:href="#J"/><use transform="matrix(0.06172839506172839,0,0,0.06172839506172839,15.987654320987653,0)" xlink:href="#K"/><use transform="matrix(0.06172839506172839,0,0,0.06172839506172839,27.098765432098766,0)" xlink:href="#L"/><use transform="matrix(0.06172839506172839,0,0,0.06172839506172839,38.20987654320987,0)" xlink:href="#ad"/><use transform="matrix(0.06172839506172839,0,0,0.06172839506172839,55.49382716049382,0)" xlink:href="#ac"/><use transform="matrix(0.06172839506172839,0,0,0.06172839506172839,65.30864197530863,0)" xlink:href="#ab"/><use transform="matrix(0.06172839506172839,0,0,0.06172839506172839,71.48148148148147,0)" xlink:href="#al"/><use transform="matrix(0.06172839506172839,0,0,0.06172839506172839,81.29629629629628,0)" xlink:href="#ao"/><use transform="matrix(0.06172839506172839,0,0,0.06172839506172839,92.40740740740739,0)" xlink:href="#L"/><use transform="matrix(0.06172839506172839,0,0,0.06172839506172839,103.5185185185185,0)" xlink:href="#N"/><use transform="matrix(0.06172839506172839,0,0,0.06172839506172839,112.16049382716048,0)" xlink:href="#O"/><use transform="matrix(0.06172839506172839,0,0,0.06172839506172839,121.97530864197529,0)" xlink:href="#ab"/><use transform="matrix(0.06172839506172839,0,0,0.06172839506172839,128.14814814814812,0)" xlink:href="#ab"/><use transform="matrix(0.06172839506172839,0,0,0.06172839506172839,134.32098765432096,0)" xlink:href="#S"/><use transform="matrix(0.06172839506172839,0,0,0.06172839506172839,140.4938271604938,0)" xlink:href="#K"/><use transform="matrix(0.06172839506172839,0,0,0.06172839506172839,151.6049382716049,0)" xlink:href="#ak"/></g><g id="E"><use transform="matrix(0.06172839506172839,0,0,0.06172839506172839,0,0)" xlink:href="#aa"/><use transform="matrix(0.06172839506172839,0,0,0.06172839506172839,7.345679012345679,0)" xlink:href="#ac"/><use transform="matrix(0.06172839506172839,0,0,0.06172839506172839,17.160493827160494,0)" xlink:href="#al"/><use transform="matrix(0.06172839506172839,0,0,0.06172839506172839,26.97530864197531,0)" xlink:href="#M"/><use transform="matrix(0.06172839506172839,0,0,0.06172839506172839,38.08641975308642,0)" xlink:href="#aj"/><use transform="matrix(0.06172839506172839,0,0,0.06172839506172839,44.25925925925926,0)" xlink:href="#ab"/><use transform="matrix(0.06172839506172839,0,0,0.06172839506172839,50.4320987654321,0)" xlink:href="#Z"/><use transform="matrix(0.06172839506172839,0,0,0.06172839506172839,61.543209876543216,0)" xlink:href="#L"/><use transform="matrix(0.06172839506172839,0,0,0.06172839506172839,72.65432098765433,0)" xlink:href="#an"/><use transform="matrix(0.06172839506172839,0,0,0.06172839506172839,83.76543209876544,0)" xlink:href="#P"/><use transform="matrix(0.06172839506172839,0,0,0.06172839506172839,91.11111111111113,0)" xlink:href="#O"/><use transform="matrix(0.06172839506172839,0,0,0.06172839506172839,100.92592592592594,0)" xlink:href="#aa"/><use transform="matrix(0.06172839506172839,0,0,0.06172839506172839,108.27160493827162,0)" xlink:href="#O"/><use transform="matrix(0.06172839506172839,0,0,0.06172839506172839,118.08641975308643,0)" xlink:href="#P"/><use transform="matrix(0.06172839506172839,0,0,0.06172839506172839,125.43209876543212,0)" xlink:href="#O"/><use transform="matrix(0.06172839506172839,0,0,0.06172839506172839,135.24691358024694,0)" xlink:href="#K"/><use transform="matrix(0.06172839506172839,0,0,0.06172839506172839,146.35802469135805,0)" xlink:href="#al"/><use transform="matrix(0.06172839506172839,0,0,0.06172839506172839,156.17283950617286,0)" xlink:href="#O"/></g><path fill="#fff" d="M53-14c58 12 82-15 82-73 0-52-35-77-82-58v131zM89 4C64 4 42-2 24-9v-229l-24-4v-8h53l-1 94c48-33 114-4 114 69 0 57-23 91-77 91" id="aw"/><g id="F"><use transform="matrix(0.06172839506172839,0,0,0.06172839506172839,0,0)" xlink:href="#ao"/><use transform="matrix(0.06172839506172839,0,0,0.06172839506172839,11.11111111111111,0)" xlink:href="#am"/><use transform="matrix(0.06172839506172839,0,0,0.06172839506172839,22.22222222222222,0)" xlink:href="#aw"/><use transform="matrix(0.06172839506172839,0,0,0.06172839506172839,33.33333333333333,0)" xlink:href="#aw"/><use transform="matrix(0.06172839506172839,0,0,0.06172839506172839,44.44444444444444,0)" xlink:href="#S"/><use transform="matrix(0.06172839506172839,0,0,0.06172839506172839,50.617283950617285,0)" xlink:href="#O"/><use transform="matrix(0.06172839506172839,0,0,0.06172839506172839,60.4320987654321,0)" xlink:href="#N"/></g><path fill="#fff" d="M56-14l29 5v9H8v-9l26-5 80-107-68-101-27-4v-10h97v10l-30 4 49 73 55-73-29-4v-10h77v10l-26 4-66 88 81 120 26 5v9h-97v-9l30-5-62-91" id="ax"/><path fill="#fff" d="M27 48v-298h80v8l-52 8V33l52 7v8H27" id="ay"/><path fill="#fff" d="M13 48v-8l52-7v-267l-52-8v-8h80V48H13" id="az"/><g id="G"><use transform="matrix(0.06172839506172839,0,0,0.06172839506172839,0,0)" xlink:href="#Y"/><use transform="matrix(0.06172839506172839,0,0,0.06172839506172839,13.518518518518517,0)" xlink:href="#au"/><use transform="matrix(0.06172839506172839,0,0,0.06172839506172839,27.037037037037035,0)" xlink:href="#ax"/><use transform="matrix(0.06172839506172839,0,0,0.06172839506172839,43.02469135802469,0)" xlink:href="#Y"/><use transform="matrix(0.06172839506172839,0,0,0.06172839506172839,56.54320987654321,0)" xlink:href="#ay"/><use transform="matrix(0.06172839506172839,0,0,0.06172839506172839,63.888888888888886,0)" xlink:href="#az"/></g><g id="H"><use transform="matrix(0.06172839506172839,0,0,0.06172839506172839,0,0)" xlink:href="#ad"/><use transform="matrix(0.06172839506172839,0,0,0.06172839506172839,17.28395061728395,0)" xlink:href="#aw"/><use transform="matrix(0.06172839506172839,0,0,0.06172839506172839,28.39506172839506,0)" xlink:href="#ab"/><use transform="matrix(0.06172839506172839,0,0,0.06172839506172839,34.5679012345679,0)" xlink:href="#S"/></g><g id="I"><use transform="matrix(0.06172839506172839,0,0,0.06172839506172839,0,0)" xlink:href="#J"/><use transform="matrix(0.06172839506172839,0,0,0.06172839506172839,15.987654320987653,0)" xlink:href="#K"/><use transform="matrix(0.06172839506172839,0,0,0.06172839506172839,27.098765432098766,0)" xlink:href="#L"/><use transform="matrix(0.06172839506172839,0,0,0.06172839506172839,38.20987654320987,0)" xlink:href="#ad"/><use transform="matrix(0.06172839506172839,0,0,0.06172839506172839,55.49382716049382,0)" xlink:href="#ac"/><use transform="matrix(0.06172839506172839,0,0,0.06172839506172839,65.30864197530863,0)" xlink:href="#ab"/><use transform="matrix(0.06172839506172839,0,0,0.06172839506172839,71.48148148148147,0)" xlink:href="#al"/><use transform="matrix(0.06172839506172839,0,0,0.06172839506172839,81.29629629629628,0)" xlink:href="#ao"/><use transform="matrix(0.06172839506172839,0,0,0.06172839506172839,92.40740740740739,0)" xlink:href="#L"/><use transform="matrix(0.06172839506172839,0,0,0.06172839506172839,103.5185185185185,0)" xlink:href="#P"/><use transform="matrix(0.06172839506172839,0,0,0.06172839506172839,110.86419753086419,0)" xlink:href="#O"/><use transform="matrix(0.06172839506172839,0,0,0.06172839506172839,120.679012345679,0)" xlink:href="#as"/><use transform="matrix(0.06172839506172839,0,0,0.06172839506172839,131.7901234567901,0)" xlink:href="#M"/><use transform="matrix(0.06172839506172839,0,0,0.06172839506172839,142.9012345679012,0)" xlink:href="#O"/><use transform="matrix(0.06172839506172839,0,0,0.06172839506172839,152.71604938271602,0)" xlink:href="#N"/><use transform="matrix(0.06172839506172839,0,0,0.06172839506172839,161.358024691358,0)" xlink:href="#ab"/></g></defs></g></svg>